#!OML:ASF I:\Actors\actors\Patient Classification 1\Patient 1\Session 1\Subject1.ASF
:FULLY-SPECIFIED
:DEGREES
346
root 0.629755 17.5963 7.49869 7.21004 3.72642 -9.4169
lowerback 4.74818 0.554436 6.99262
upperback -7.17582 1.52684 0.960701
thorax -10.2109 0.252061 -3.08923
lowerneck -13.5869 -5.86468 -1.42966
upperneck 20.5459 -9.99386 9.17498
head 9.27635 -3.83748 2.14656
rclavicle -1.60519e-014 -7.95139e-016
rhumerus 20.5639 35.8242 -92.4803
rradius 134.041
rwrist -7.71004
rhand -8.58286 -37.4575
rfingers 7.12502
rthumb 17.3479 -66.7033
lclavicle -1.60519e-014 -7.95139e-016
lhumerus 18.8561 -50.674 96.8839
lradius 131.956
lwrist 18.4377
lhand -36.5603 -26.4383
lfingers 7.12502
lthumb -9.6504 3.3206
rfemur -8.22181 20.3877 25.7765
rtibia 6.2078
rfoot -11.597 -22.0923
rtoes 1.87766
lfemur -7.50487 -28.7062 -2.75679
ltibia 2.48311
lfoot -7.58164 31.4403
ltoes -8.30162
347
root 0.641355 17.5837 7.51622 7.16575 3.43179 -9.44313
lowerback 4.60205 0.579549 7.01694
upperback -7.25338 1.56458 1.08024
thorax -10.2094 0.272606 -2.97649
lowerneck -13.4395 -5.92383 -1.86074
upperneck 20.8069 -10.061 9.39231
head 9.37792 -3.8741 2.2873
rclavicle 8.05078e-015 1.66979e-014
rhumerus 21.6916 38.2698 -90.8239
rradius 136.091
rwrist -6.81925
rhand -9.81981 -38.8824
rfingers 7.12502
rthumb 16.1572 -68.229
lclavicle 8.05078e-015 1.66979e-014
lhumerus 19.6518 -51.5098 95.583
lradius 132.504
lwrist 17.1489
lhand -37.0674 -25.9947
lfingers 7.12502
lthumb -10.1397 3.74102
rfemur -8.08961 20.1856 25.7973
rtibia 6.131
rfoot -11.4675 -21.6809
rtoes 1.21935
lfemur -7.32769 -28.3599 -2.88265
ltibia 2.58495
lfoot -7.33656 31.3151
ltoes -8.58488
348
root 0.65509 17.5768 7.52941 6.99333 3.21066 -9.48075
lowerback 4.55103 0.560433 7.03193
upperback -7.23743 1.54939 1.24871
thorax -10.1668 0.27378 -2.80083
lowerneck -13.4225 -5.84972 -2.32441
upperneck 21.2359 -9.9825 9.72548
head 9.56269 -3.82229 2.49139
rclavicle 2.48481e-016 -5.56597e-015
rhumerus 22.9752 39.6281 -89.2352
rradius 137.203
rwrist -5.17465
rhand -9.85353 -38.5372
rfingers 7.12502
rthumb 16.1247 -67.8864
lclavicle 2.48481e-016 -5.56597e-015
lhumerus 20.6646 -52.2089 93.8654
lradius 132.76
lwrist 15.8878
lhand -37.7189 -25.6477
lfingers 7.12502
lthumb -10.7681 4.0563
rfemur -7.82828 20.0812 25.8639
rtibia 6.10913
rfoot -11.4458 -21.4127
rtoes 0.888046
lfemur -7.044 -27.8911 -3.01343
ltibia 2.61696
lfoot -7.22833 31.0444
ltoes -8.81134
349
root 0.671414 17.5754 7.53853 6.78924 3.09694 -9.52268
lowerback 4.55088 0.511137 7.10252
upperback -7.21684 1.50356 1.42068
thorax -10.1527 0.255024 -2.64952
lowerneck -13.2985 -5.73371 -2.52486
upperneck 21.4808 -9.79768 9.71541
head 9.62064 -3.74861 2.5509
rclavicle -4.47266e-016 -1.66979e-014
rhumerus 24.2505 40.7687 -87.4863
rradius 137.751
rwrist -3.74958
rhand -11.5424 -37.7216
rfingers 7.12502
rthumb 14.498 -67.1951
lclavicle -4.47266e-016 -1.66979e-014
lhumerus 21.4315 -52.6484 92.3617
lradius 132.833
lwrist 15.4658
lhand -37.7181 -25.2099
lfingers 7.12502
lthumb -10.7674 4.49415
rfemur -7.52321 20.0943 25.9328
rtibia 6.07301
rfoot -11.5227 -21.3224
rtoes 0.818441
lfemur -6.80397 -27.4298 -3.09977
ltibia 2.65194
lfoot -7.25795 30.6677
ltoes -9.32548
350
root 0.690883 17.5773 7.54644 6.62489 3.0799 -9.5388
lowerback 4.51564 0.477546 7.1686
upperback -7.23094 1.47859 1.60558
thorax -10.1548 0.246226 -2.48396
lowerneck -13.1223 -5.62053 -2.53474
upperneck 21.6957 -9.58421 9.41791
head 9.62959 -3.68011 2.48416
rclavicle 9.39258e-015 6.36111e-015
rhumerus 25.4355 41.7869 -85.4936
rradius 137.873
rwrist -2.64043
rhand -12.3957 -40.358
rfingers 7.12502
rthumb 13.6757 -69.8887
lclavicle 9.39258e-015 6.36111e-015
lhumerus 21.8962 -52.9521 91.3536
lradius 132.776
lwrist 15.951
lhand -37.8668 -25.0442
lfingers 7.12502
lthumb -10.9108 4.6523
rfemur -7.24989 20.198 25.9552
rtibia 6.00884
rfoot -11.5561 -21.4403
rtoes 0.737249
lfemur -6.61881 -27.0211 -3.17486
ltibia 2.6742
lfoot -7.37207 30.1761
ltoes -9.96851
351
root 0.710743 17.5811 7.55853 6.50807 3.11247 -9.54068
lowerback 4.39673 0.452602 7.21684
upperback -7.2601 1.45757 1.80286
thorax -10.1235 0.24226 -2.29448
lowerneck -13.136 -5.53198 -2.94351
upperneck 22.1183 -9.4584 9.6016
head 9.80211 -3.61956 2.63634
rclavicle -3.32964e-015 -3.37934e-014
rhumerus 26.5496 42.8032 -83.4045
rradius 137.671
rwrist -1.93936
rhand -13.6917 -42.4539
rfingers 7.12502
rthumb 12.4264 -72.0645
lclavicle -3.32964e-015 -3.37934e-014
lhumerus 22.1049 -53.1898 90.7371
lradius 132.66
lwrist 16.5042
lhand -38.8672 -25.0509
lfingers 7.12502
lthumb -11.8756 4.5923
rfemur -7.00955 20.4887 25.9668
rtibia 5.94526
rfoot -11.5785 -21.8184
rtoes 0.979892
lfemur -6.35976 -26.8538 -3.26258
ltibia 2.54758
lfoot -7.7114 29.8539
ltoes -9.73951
352
root 0.732157 17.5844 7.57271 6.44203 3.15169 -9.5454
lowerback 4.20742 0.421239 7.36636
upperback -7.29286 1.42655 1.95908
thorax -10.0534 0.225002 -2.20321
lowerneck -13.3168 -5.459 -3.73403
upperneck 22.6792 -9.40889 10.2824
head 10.11 -3.56315 3.01812
rclavicle 5.76476e-015 2.14687e-014
rhumerus 27.4808 43.6891 -81.6058
rradius 137.248
rwrist -1.65125
rhand -14.9397 -44.1763
rfingers 7.12502
rthumb 11.2229 -73.8561
lclavicle 5.76476e-015 2.14687e-014
lhumerus 22.0216 -53.2802 90.3822
lradius 132.431
lwrist 16.1119
lhand -40.1882 -25.2625
lfingers 7.12502
lthumb -13.1492 4.30292
rfemur -6.86174 20.8882 25.9682
rtibia 5.95481
rfoot -11.6914 -22.2839
rtoes 1.56929
lfemur -6.01015 -27.0191 -3.37651
ltibia 2.18657
lfoot -7.87989 29.9189
ltoes -9.36471
353
root 0.753214 17.5859 7.58498 6.40336 3.20654 -9.54541
lowerback 3.98524 0.396162 7.53947
upperback -7.31674 1.39986 2.09837
thorax -9.95279 0.208513 -2.14361
lowerneck -13.3676 -5.42675 -4.15279
upperneck 23.0873 -9.3636 10.4839
head 10.2943 -3.5407 3.17231
rclavicle 1.01877e-015 -7.55382e-014
rhumerus 28.1629 44.196 -80.1598
rradius 136.786
rwrist -1.62161
rhand -15.7583 -45.3749
rfingers 7.12502
rthumb 10.4334 -75.096
lclavicle 1.01877e-015 -7.55382e-014
lhumerus 21.8783 -53.2379 90.0665
lradius 132.109
lwrist 14.6621
lhand -41.5775 -25.6452
lfingers 7.12502
lthumb -14.4881 3.82893
rfemur -6.8141 21.2103 25.9626
rtibia 6.08979
rfoot -11.8286 -22.6402
rtoes 1.88051
lfemur -5.64543 -27.3888 -3.51876
ltibia 1.71724
lfoot -7.80344 30.2334
ltoes -9.26531
354
root 0.769708 17.5848 7.59712 6.35889 3.2949 -9.5836
lowerback 3.87487 0.416171 7.77915
upperback -7.41433 1.45051 2.17659
thorax -9.99358 0.215415 -2.19665
lowerneck -13.179 -5.50107 -4.24696
upperneck 23.3754 -9.44131 10.3228
head 10.3635 -3.59962 3.12838
rclavicle 7.10655e-015 -1.8487e-014
rhumerus 28.3587 44.2538 -79.0837
rradius 136.358
rwrist -1.20552
rhand -16.368 -46.3656
rfingers 7.12502
rthumb 9.84512 -76.1154
lclavicle 7.10655e-015 -1.8487e-014
lhumerus 21.529 -53.3033 89.8744
lradius 131.741
lwrist 12.8757
lhand -42.9789 -26.1845
lfingers 7.12502
lthumb -15.8381 3.18768
rfemur -6.79668 21.3345 26.0184
rtibia 6.29505
rfoot -11.9675 -22.7922
rtoes 2.22733
lfemur -5.29481 -27.7503 -3.62503
ltibia 1.32656
lfoot -7.77714 30.512
ltoes -9.21143
355
root 0.780436 17.5819 7.60963 6.29267 3.41926 -9.57864
lowerback 3.71802 0.425018 7.93856
upperback -7.45071 1.46787 2.23778
thorax -9.94022 0.215968 -2.21913
lowerneck -12.9279 -5.57924 -4.32991
upperneck 23.5427 -9.52395 10.1995
head 10.3789 -3.66189 3.0948
rclavicle 9.79014e-015 -1.19271e-015
rhumerus 28.3797 44.1782 -78.1088
rradius 135.999
rwrist -0.319382
rhand -17.0201 -47.4692
rfingers 7.12502
rthumb 9.21594 -77.2478
lclavicle 9.79014e-015 -1.19271e-015
lhumerus 21.3142 -53.3612 89.5336
lradius 131.361
lwrist 11.6522
lhand -44.4482 -26.5086
lfingers 7.12502
lthumb -17.2526 2.74557
rfemur -6.7719 21.1719 26.0349
rtibia 6.5025
rfoot -12.1154 -22.7266
rtoes 2.80394
lfemur -4.95535 -28.0585 -3.79706
ltibia 1.04429
lfoot -7.67466 30.6772
ltoes -9.61013
356
root 0.780044 17.5781 7.61652 6.23626 3.598 -9.59207
lowerback 3.08475 0.298844 7.71992
upperback -7.10416 1.21518 2.5741
thorax -9.20488 0.156603 -1.70689
lowerneck -12.8574 -5.57655 -4.67653
upperneck 23.2781 -9.37367 10.0684
head 10.2642 -3.64874 3.12483
rclavicle 9.91439e-015 -3.34952e-014
rhumerus 29.2126 44.4213 -76.6363
rradius 135.816
rwrist 0.204695
rhand -17.5987 -48.5144
rfingers 7.12502
rthumb 8.65765 -78.3169
lclavicle 9.91439e-015 -3.34952e-014
lhumerus 22.1489 -52.9388 88.4025
lradius 131.072
lwrist 11.3215
lhand -45.734 -26.5233
lfingers 7.12502
lthumb -18.4898 2.61794
rfemur -6.82361 20.9451 26.073
rtibia 6.75464
rfoot -12.237 -22.64
rtoes 3.0384
lfemur -4.773 -28.3875 -3.84734
ltibia 0.839477
lfoot -7.46006 30.8486
ltoes -10.2382
